# xmcd CD database file
#
# Track frame offsets:
#	183
#	17883
#	35925
#
# Disc length: 723 seconds
#
# Revision: 6
# Processed by: cddbd v1.5.1PL0 Copyright (c) Steve Scherf et al.
# Submitted via: CDex 1.51
#
DISCID=2302d103
DTITLE=The Bellamy Brothers - Blame it... on the fire in my heart
DYEAR=1900
DGENRE=Country
TTITLE0=Blame It... On The Fire In My Heart
TTITLE1=Life Is A Beach
TTITLE2=Changin' Hearts
EXTD=
EXTT0=
EXTT1=
EXTT2=
PLAYORDER=
